<?xml version="1.0" encoding="UTF-8"?><svg id="Layer_2" xmlns="http://www.w3.org/2000/svg" viewBox="0 0 479.06 479.06"><defs><style>.cls-1{fill:#fff;}.cls-2{fill:#1a374d;}</style></defs><g id="Layer_1-2"><g><circle class="cls-1" cx="239.53" cy="239.53" r="239.53"/><g><polygon class="cls-2" points="99.14 306.6 99.14 306.57 73.66 306.57 69.14 309.18 69.14 329.75 77.88 334.79 99.33 334.79 99.33 306.6 99.14 306.6"/><g><path class="cls-2" d="M192.09,161.62c-10.13-9.27-21.42-15.84-33.86-19.7-11.59-3.95-27.38-5.92-47.38-5.92h-41.71v132.19c0,.35,0,.71,.02,1.06,.58,8.22,7.74,14.42,16,13.85,7.93-.55,13.96-7.15,13.92-14.96h.06v-103.95h13.52c25.58,0,44.93,6.05,58.07,18.15,14.59,13.56,21.89,31.24,21.89,53.05s-7.38,39.18-22.14,52.66c-7.21,6.52-15.28,11.29-24.2,14.29-8.93,2.83-20.13,4.25-33.6,4.25h-13.33v28.2h11.01c20.17,0,35.75-1.84,46.74-5.54,11.76-3.69,23-10.26,33.73-19.7,21.37-18.88,32.06-43.6,32.06-74.16s-10.26-55.06-30.77-73.77Z"/><polygon class="cls-2" points="73.66 306.57 99.14 306.57 99.14 291.86 73.66 306.57"/><polygon class="cls-2" points="406.33 136 376.33 136 376.33 186.54 406.33 203.69 406.33 136"/><path class="cls-2" d="M376.22,213.77h-85.64v-77.77h-30v185.74c.84,7.02,6.75,12.62,14.2,12.97,8.29,.38,15.34-5.88,15.73-13.99,.02-.34,0-.67,0-1h.07v-77.75h85.64v-28.2Z"/><polygon class="cls-2" points="376.33 252.13 406.33 234.81 406.33 218.38 376.33 201.06 376.33 213.77 376.22 213.77 376.22 241.96 376.33 241.96 376.33 252.13"/><polygon class="cls-2" points="376.33 267.93 376.33 334.79 406.33 334.79 406.33 250.08 376.33 267.93"/><polygon class="cls-2" points="420.41 226.68 376.26 252.17 376.26 252.38 420.6 226.79 420.41 226.68"/><polygon class="cls-2" points="376.26 201.19 376.26 252.17 420.41 226.68 376.26 201.19"/><g><polygon class="cls-2" points="73.66 306.57 51.33 319.46 99.33 347.18 99.33 306.57 73.66 306.57"/><polygon class="cls-2" points="73.66 306.57 99.33 306.57 99.33 291.75 73.66 306.57"/></g></g></g><rect class="cls-2" x="95.36" y="306.6" width="14.47" height="28.2"/></g></g></svg>