<?xml version="1.0" encoding="UTF-8"?><svg id="Layer_2" xmlns="http://www.w3.org/2000/svg" viewBox="0 0 249.09 212.45"><defs><style>.cls-1{fill:#fff;}.cls-2{fill:#1a374d;}.cls-3{fill:none;stroke:#1a374d;stroke-linecap:round;stroke-width:44.89px;}</style></defs><g id="Layer_1-2"><path class="cls-1" d="M22.21,0H0V212.45H155v-65.89C88.71,125.82,39.16,73.59,29.16,10.09"/><path class="cls-1" d="M249.09,158.13l-94.09-54.32v43.31c16.66,5.2,34.38,8.41,52.79,9.29-18.42-.88-36.14-4.09-52.79-9.29v65.33l94.09-54.32Z"/><g><path class="cls-3" d="M180.06,158.13C96.71,154.15,29.64,95.9,23.06,22.56"/><path class="cls-2" d="M249.09,158.13l-94.09-54.32v43.31c16.66,5.2,34.38,8.41,52.79,9.29-18.42-.88-36.14-4.09-52.79-9.29v65.33l94.09-54.32Z"/></g></g></svg>