<?xml version="1.0" encoding="UTF-8"?><svg id="Layer_2" xmlns="http://www.w3.org/2000/svg" viewBox="0 0 1164.34 461.52"><defs><style>.cls-1{font-family:Futura-Medium, Futura;font-size:212px;}.cls-1,.cls-2{fill:#1a374d;}.cls-3{letter-spacing:0em;}.cls-4{fill:#fff;}.cls-5{stroke-width:10.04px;}.cls-5,.cls-6,.cls-7{stroke:#fff;}.cls-6{stroke-width:10px;}.cls-8{letter-spacing:-.04em;}.cls-9{letter-spacing:0em;}.cls-7{stroke-width:3.39px;}</style></defs><g id="Layer_1-2"><rect class="cls-4" x="0" y="0" width="1164.34" height="423.91" transform="translate(1164.34 423.91) rotate(-180)"/><text class="cls-1" transform="translate(16.27 192.34)"><tspan x="0" y="0">DIVE</tspan><tspan class="cls-3" x="479.69" y="0">R</tspan><tspan x="605.46" y="0">TI</tspan><tspan class="cls-9" x="770.26" y="0">N</tspan><tspan x="950.89" y="0">G</tspan><tspan x="0" y="208">H</tspan><tspan class="cls-8" x="155.48" y="208">A</tspan><tspan x="303.61" y="208">TE</tspan></text><polygon class="cls-2" points="163.75 314.3 128.1 334.88 128.1 293.72 163.75 314.3"/><line class="cls-5" x1="166.48" y1="318.13" x2="122.95" y2="343.47"/><rect class="cls-4" x="21.37" y="138.75" width="41.56" height="30.89"/><ellipse class="cls-2" cx="47.45" cy="138.81" rx="12.05" ry="12"/><rect class="cls-4" x="36.1" y="185.58" width="7.17" height="14.34" transform="translate(-91.06 45.66) rotate(-30)"/><polygon class="cls-2" points="19.68 180.01 58.28 202.3 58.28 157.73 19.68 180.01"/><line class="cls-7" x1="60.86" y1="155.57" x2="13.54" y2="182.89"/><rect class="cls-4" x="21.5" y="387.41" width="52.12" height="30.11" transform="translate(-53.56 10.02) rotate(-7.71)"/><circle class="cls-2" cx="47.55" cy="387.34" r="12"/><line class="cls-6" x1="125.1" y1="286.23" x2="168.63" y2="311.37"/></g></svg>