<?xml version="1.0" encoding="UTF-8"?><svg id="Layer_2" xmlns="http://www.w3.org/2000/svg" viewBox="0 0 212.45 249.09"><defs><style>.cls-1{fill:#fff;}.cls-2{fill:#1a374d;}.cls-3{fill:none;stroke:#1a374d;stroke-linecap:round;stroke-width:44.89px;}</style></defs><g id="Layer_1-2"><path class="cls-1" d="M0,226.88v22.21H212.45V94.09h-65.89c-20.74,66.29-72.98,115.84-136.48,125.84"/><path class="cls-1" d="M158.13,0l-54.32,94.09h43.31c5.2-16.66,8.41-34.38,9.29-52.79-.88,18.42-4.09,36.14-9.29,52.79h65.33L158.13,0Z"/><g><path class="cls-3" d="M158.13,69.03c-3.98,83.35-62.23,150.42-135.57,156.99"/><path class="cls-2" d="M158.13,0l-54.32,94.09h43.31c5.2-16.66,8.41-34.38,9.29-52.79-.88,18.42-4.09,36.14-9.29,52.79h65.33L158.13,0Z"/></g></g></svg>